<?xml version="1.0" encoding="utf-8"?>
<!-- Generator: Adobe Illustrator 15.0.0, SVG Export Plug-In  -->
<!DOCTYPE svg PUBLIC "-//W3C//DTD SVG 1.1//EN" "http://www.w3.org/Graphics/SVG/1.1/DTD/svg11.dtd" [
	<!ENTITY ns_flows "http://ns.adobe.com/Flows/1.0/">
]>
<?xml-stylesheet type="text/css" href="../css/main.css" ?>
<svg version="1.1"
	 xmlns="http://www.w3.org/2000/svg" xmlns:xlink="http://www.w3.org/1999/xlink" xmlns:a="http://ns.adobe.com/AdobeSVGViewerExtensions/3.0/"
	 id="download"
	 x="0px" y="0px" width="14px" height="100px" viewBox="0 0 14 100" overflow="visible" enable-background="new 0 0 14 100"
	 xml:space="preserve">
<defs>
</defs>
<path class="part1" fill="#49AFEB" d="M3.123,17.016C1.4,17.016,0,15.615,0,13.893v-3.554c0-0.215,0.215-0.323,0.323-0.323
	c0.323,0,1.078-0.108,1.078,0.323v3.554c0,0.969,0.753,1.723,1.723,1.723h7.754c0.969,0,1.723-0.753,1.723-1.723v-3.231
	c0-0.323-0.107-0.754,0.324-0.754C13.246,9.908,14,9.8,14,10.231v3.554c0,1.723-1.4,3.123-3.123,3.123H3.123V17.016z M6.461,12.923
	L0.539,6.893C0.323,6.785,0.323,6.569,0.323,6.354c0-0.431,0.323-0.753,0.754-0.753H4.2V0.754C4.2,0.323,4.523,0,4.954,0h4.2
	c0.431,0,0.754,0.323,0.754,0.754v4.954h3.123c0.323,0,0.646,0.323,0.646,0.646c0,0.215-0.108,0.323-0.216,0.539l-6.03,6.031
	c-0.108,0.108-0.323,0.215-0.539,0.215C6.677,13.139,6.677,13.031,6.461,12.923z"/>
<path class="part2" fill="#49AFEB" d="M3.123,99.993C1.4,99.993,0,98.592,0,96.87v-3.554c0-0.215,0.215-0.323,0.323-0.323
	c0.323,0,1.078-0.108,1.078,0.323v3.554c0,0.969,0.753,1.723,1.723,1.723h7.754c0.969,0,1.723-0.753,1.723-1.723v-3.231
	c0-0.323-0.107-0.754,0.324-0.754c0.323,0,1.077-0.107,1.077,0.323v3.554c0,1.723-1.4,3.123-3.123,3.123H3.123V99.993z M6.461,95.9
	L0.539,89.87c-0.216-0.108-0.216-0.323-0.216-0.539c0-0.431,0.323-0.753,0.754-0.753H4.2v-4.847c0-0.431,0.323-0.754,0.753-0.754
	h4.2c0.431,0,0.754,0.323,0.754,0.754v4.954h3.123c0.323,0,0.646,0.323,0.646,0.646c0,0.215-0.108,0.323-0.216,0.539L7.431,95.9
	c-0.108,0.108-0.323,0.215-0.539,0.215C6.677,96.116,6.677,96.008,6.461,95.9z"/>
</svg>
