<?xml version="1.0" encoding="utf-8"?>
<!-- Generator: Adobe Illustrator 15.0.0, SVG Export Plug-In  -->
<!DOCTYPE svg PUBLIC "-//W3C//DTD SVG 1.1//EN" "http://www.w3.org/Graphics/SVG/1.1/DTD/svg11.dtd" [
	<!ENTITY ns_flows "http://ns.adobe.com/Flows/1.0/">
]>
<svg version="1.1"
	 xmlns="http://www.w3.org/2000/svg" xmlns:xlink="http://www.w3.org/1999/xlink" xmlns:a="http://ns.adobe.com/AdobeSVGViewerExtensions/3.0/"
	 x="0px" y="0px" width="15px" height="13px" viewBox="0 0 15 13" overflow="visible" enable-background="new 0 0 15 13"
	 xml:space="preserve">
<defs>
</defs>
<path fill="#FFFFFF" d="M14.82,3.056l-2.715,2.715c0,0-0.113,0.113-0.227,0.113c-0.112,0-0.227-0.113-0.227-0.227V3.96H9.504
	c-1.132,0-1.584,0.792-2.15,1.697C7.24,6.109,7.015,6.562,6.901,7.015c-0.905,2.149-2.036,4.413-4.752,4.413H0.227
	C0.113,11.428,0,11.314,0,11.201V9.617c0-0.113,0.113-0.227,0.227-0.227h1.923c1.132,0,1.584-0.792,2.149-1.697
	c0.227-0.452,0.453-0.904,0.679-1.471c0.905-2.149,2.037-4.412,4.752-4.412h2.149V0.227C11.879,0.113,11.992,0,12.105,0
	s0.113,0,0.227,0.113l2.715,2.716c0,0,0.113,0.113,0.113,0.227C15.16,3.168,14.934,3.056,14.82,3.056z M4.412,5.997
	C3.96,4.979,3.394,3.96,2.149,3.96H0.227C0.113,3.96,0,3.848,0,3.734V2.15c0-0.113,0.113-0.227,0.227-0.227h1.923
	c1.471,0,2.603,0.679,3.395,1.924C5.091,4.413,4.752,5.205,4.412,5.997z M14.82,10.522l-2.715,2.715c0,0-0.113,0.113-0.227,0.113
	c-0.112,0-0.227-0.113-0.227-0.227v-1.583c-2.488,0-3.959,0.339-5.543-1.924C6.562,8.938,6.901,8.146,7.24,7.354
	c0.453,1.019,1.019,2.036,2.264,2.036h2.148V7.807c0-0.113,0.114-0.227,0.227-0.227c0.113,0,0.113,0,0.227,0.113l2.715,2.716
	c0,0,0.113,0.113,0.113,0.227C14.934,10.748,14.934,10.522,14.82,10.522z"/>
</svg>
