<?xml version="1.0" encoding="utf-8"?>
<!-- Generator: Adobe Illustrator 15.0.0, SVG Export Plug-In  -->
<!DOCTYPE svg PUBLIC "-//W3C//DTD SVG 1.1//EN" "http://www.w3.org/Graphics/SVG/1.1/DTD/svg11.dtd" [
	<!ENTITY ns_flows "http://ns.adobe.com/Flows/1.0/">
]>
<svg version="1.1"
	 xmlns="http://www.w3.org/2000/svg" xmlns:xlink="http://www.w3.org/1999/xlink" xmlns:a="http://ns.adobe.com/AdobeSVGViewerExtensions/3.0/"
	 x="0px" y="0px" width="15px" height="13px" viewBox="0 0 15 13" overflow="visible" enable-background="new 0 0 15 13"
	 xml:space="preserve">
<defs>
</defs>
<path fill="#FFFFFF" d="M14.275,10.041c-1.209,2.42-4.355,2.661-6.774,2.661c-2.298,0-5.807-0.241-7.017-2.661
	C0.121,9.193,0,8.105,0,7.138c0-1.331,0.363-2.541,1.21-3.509C0.968,3.145,0.968,2.661,0.968,2.057c0-0.727,0.121-1.33,0.484-1.936
	c1.452,0,2.299,0.605,3.387,1.451C5.686,1.33,6.654,1.209,7.622,1.209c0.847,0,1.693,0.121,2.541,0.242
	C11.25,0.604,12.098,0,13.549,0c0.242,0.604,0.484,1.33,0.484,1.936c0,0.483-0.121,0.968-0.242,1.451
	c0.847,0.968,1.21,2.299,1.21,3.508C14.759,8.105,14.759,9.193,14.275,10.041z M10.525,6.17c-0.605,0-1.21,0.121-1.694,0.241
	C8.348,6.532,7.864,6.532,7.38,6.532s-0.968,0-1.452-0.121C5.323,6.291,4.718,6.17,4.234,6.17c-1.452,0-2.298,1.209-2.298,2.539
	c0,2.784,2.541,3.146,4.718,3.146h1.452c2.177,0,4.718-0.362,4.718-3.146C12.824,7.379,11.977,6.17,10.525,6.17z M4.476,10.403
	c-0.847,0-1.088-1.089-1.088-1.694c0-0.604,0.363-1.692,1.088-1.692c0.847,0,1.089,1.089,1.089,1.692
	C5.565,9.314,5.323,10.403,4.476,10.403z M10.283,10.403c-0.847,0-1.088-1.089-1.088-1.694c0-0.604,0.363-1.692,1.088-1.692
	c0.847,0,1.089,1.089,1.089,1.692C11.372,9.314,11.009,10.403,10.283,10.403z"/>
</svg>
